<svg width="736" height="560" viewBox="0 0 736 560" fill="none" xmlns="http://www.w3.org/2000/svg">
<g clip-path="url(#clip0)">
<path d="M145.292 270.232C197.53 230.42 122.462 172.248 189.018 116.879C296.493 27.3014 440.342 170.412 484.067 223.366C544.141 296.13 554.202 196.793 616.017 263.372C662.451 313.427 638.847 374.111 587.576 400.878C492 450.74 370.691 407.449 288.077 465.331C191.049 533.263 121.011 446.681 106.017 376.334C95.2788 326.375 99.0516 305.503 145.292 270.232Z" fill="#0E38CC"/>
<path d="M364.596 303.667L196.756 401.071C195.692 401.651 194.338 401.071 194.048 399.912L152.934 245.495C152.741 244.722 153.128 243.852 153.901 243.466L327.836 153.019C328.9 152.439 330.157 153.115 330.448 154.275L365.467 301.734C365.66 302.507 365.273 303.28 364.596 303.667Z" fill="white" stroke="black" stroke-miterlimit="10"/>
<path d="M300.556 294.777L198.401 354.108C197.724 354.495 196.95 354.108 196.757 353.432L171.702 259.41C171.605 258.927 171.799 258.443 172.282 258.154L278.21 203.074C278.887 202.784 279.661 203.074 279.758 203.847L301.04 293.617C301.137 294.004 300.943 294.487 300.556 294.777Z" fill="black" stroke="black" stroke-miterlimit="10"/>
<path d="M329.578 302.797L227.423 362.129C226.746 362.515 225.972 362.129 225.778 361.452L200.723 267.43C200.627 266.947 200.82 266.464 201.304 266.174L307.231 211.094C307.909 210.804 308.683 211.094 308.779 211.867L330.062 301.638C330.158 302.121 329.965 302.604 329.578 302.797Z" fill="white" stroke="black" stroke-miterlimit="10"/>
<path d="M485.132 372.855C488.324 374.691 487.647 380.392 484.454 382.325L322.129 475.864C318.936 477.7 313.713 477.7 310.52 475.864L203.335 414.02C200.143 412.184 199.562 406.289 202.755 404.453L365.661 316.519C368.853 314.683 374.077 314.683 377.269 316.519L485.132 372.855Z" fill="black" stroke="black" stroke-miterlimit="10"/>
<path d="M484.453 372.372C487.646 374.208 487.646 377.203 484.453 379.039L322.127 472.675C318.935 474.511 313.711 474.511 310.519 472.675L203.334 410.831C200.141 408.995 200.141 405.999 203.334 404.163L365.659 310.528C368.852 308.692 374.076 308.692 377.268 310.528L484.453 372.372Z" fill="white" stroke="black" stroke-miterlimit="10"/>
<path d="M425.928 404.647L370.981 436.342L336.252 416.339L391.102 384.644L425.928 404.647Z" fill="white" stroke="black" stroke-miterlimit="10"/>
<path d="M425.54 349.76C426.024 350.05 426.024 350.533 425.54 350.823L273.275 438.661C272.791 438.951 272.018 438.951 271.437 438.661L220.65 409.382C220.166 409.092 220.166 408.608 220.65 408.319L372.915 320.481C373.399 320.191 374.172 320.191 374.753 320.481L425.54 349.76Z" fill="white" stroke="black" stroke-miterlimit="10"/>
<path d="M484.454 378.943L322.128 472.578C318.936 474.414 313.712 474.414 310.52 472.578L203.334 410.734C201.787 409.865 200.916 408.609 200.916 407.449C200.916 408.705 201.69 409.865 203.334 410.831L310.52 472.675C313.712 474.511 318.936 474.511 322.128 472.675L484.454 378.943C486.098 378.073 486.872 376.817 486.872 375.657C486.776 376.817 486.002 378.073 484.454 378.943Z" fill="white"/>
<path d="M484.454 378.943L322.128 472.578C318.936 474.414 313.712 474.414 310.52 472.578L203.334 410.734C201.787 409.865 200.916 408.609 200.916 407.449C200.916 408.705 201.69 409.865 203.334 410.831L310.52 472.675C313.712 474.511 318.936 474.511 322.128 472.675L484.454 378.943ZM484.454 378.943C486.098 378.073 486.872 376.817 486.872 375.657C486.776 376.817 486.002 378.073 484.454 378.943Z" stroke="black" stroke-miterlimit="10"/>
<path d="M209.234 272.358L304.618 222.69" stroke="black" stroke-miterlimit="10"/>
<path d="M486.68 379.522H564.844" stroke="black" stroke-miterlimit="10" stroke-linecap="round" stroke-linejoin="round"/>
<path d="M514.926 387.639H593.09" stroke="black" stroke-miterlimit="10" stroke-linecap="round" stroke-linejoin="round"/>
<path d="M114.238 410.541H201.012" stroke="black" stroke-miterlimit="10" stroke-linecap="round" stroke-linejoin="round"/>
<path d="M380.945 257.574H340.896C334.511 257.574 329.287 252.356 329.287 245.978V205.973C329.287 199.595 334.511 194.377 340.896 194.377H380.945C387.33 194.377 392.553 199.595 392.553 205.973V245.978C392.553 252.356 387.33 257.574 380.945 257.574Z" fill="black" stroke="black" stroke-miterlimit="10"/>
<path d="M421.285 220.564H381.235C374.851 220.564 369.627 215.346 369.627 208.968V168.963C369.627 162.585 374.851 157.367 381.235 157.367H421.285C427.669 157.367 432.893 162.585 432.893 168.963V208.968C432.893 215.346 427.669 220.564 421.285 220.564Z" fill="white" stroke="black" stroke-miterlimit="10"/>
<path d="M479.811 307.339H455.433C449.048 307.339 443.824 302.121 443.824 295.743V271.392C443.824 265.014 449.048 259.796 455.433 259.796H479.811C486.195 259.796 491.419 265.014 491.419 271.392V295.743C491.419 302.121 486.195 307.339 479.811 307.339Z" fill="white" stroke="black" stroke-miterlimit="10"/>
<path d="M542.207 227.618H527.696C522.569 227.618 518.312 223.366 518.312 218.245V203.75C518.312 198.629 522.569 194.377 527.696 194.377H542.207C547.334 194.377 551.59 198.629 551.59 203.75V218.245C551.59 223.366 547.334 227.618 542.207 227.618Z" fill="white" stroke="black" stroke-miterlimit="10"/>
<path d="M584.964 278.543H577.999C573.549 278.543 569.873 274.871 569.873 270.426V263.468C569.873 259.023 573.549 255.351 577.999 255.351H584.964C589.414 255.351 593.09 259.023 593.09 263.468V270.426C593.09 274.871 589.414 278.543 584.964 278.543Z" fill="black" stroke="black" stroke-miterlimit="10"/>
<path d="M278.984 87.9858C301.04 87.9858 318.84 105.863 318.84 127.798V191.285L302.782 159.88C296.107 164.808 287.981 167.707 279.081 167.707C257.025 167.707 239.225 149.83 239.225 127.895C239.128 105.863 256.928 87.9858 278.984 87.9858Z" fill="white" stroke="black" stroke-miterlimit="10" stroke-linecap="round" stroke-linejoin="round"/>
<path d="M263.215 117.072V135.142C263.215 136.978 264.763 138.524 266.601 138.524H294.848" stroke="black" stroke-miterlimit="10" stroke-linecap="round" stroke-linejoin="round"/>
<path d="M266.988 134.369L275.501 127.798L278.984 130.794L290.302 122.87" stroke="black" stroke-miterlimit="10" stroke-linecap="round" stroke-linejoin="round"/>
<path d="M291.075 127.025V121.807H285.852" stroke="black" stroke-miterlimit="10" stroke-linecap="round" stroke-linejoin="round"/>
<path d="M408.321 477.217C417.03 477.217 424.089 470.165 424.089 461.466C424.089 452.767 417.03 445.715 408.321 445.715C399.612 445.715 392.553 452.767 392.553 461.466C392.553 470.165 399.612 477.217 408.321 477.217Z" fill="#0E38CC"/>
<path d="M468.976 180.172C473.784 180.172 477.682 176.278 477.682 171.475C477.682 166.672 473.784 162.779 468.976 162.779C464.168 162.779 460.27 166.672 460.27 171.475C460.27 176.278 464.168 180.172 468.976 180.172Z" fill="#0E38CC"/>
<path d="M168.895 99.0018L139.971 90.2084L161.543 83.1543L168.895 99.0018Z" fill="white" stroke="black" stroke-miterlimit="10" stroke-linecap="round" stroke-linejoin="round"/>
<path d="M164.542 80.5453L168.895 99.0019L161.543 83.1543L164.542 80.5453Z" fill="black" stroke="black" stroke-miterlimit="10" stroke-linecap="round" stroke-linejoin="round"/>
<path d="M178.473 70.4956L108.145 71.3653L146.646 99.5816L178.473 70.4956Z" fill="white" stroke="black" stroke-miterlimit="10" stroke-linecap="round" stroke-linejoin="round"/>
<path d="M165.026 82.7678L162.511 85.0869L108.145 71.3653L165.026 82.7678Z" fill="black" stroke="black" stroke-miterlimit="10" stroke-linecap="round" stroke-linejoin="round"/>
<path d="M174.894 93.3972C174.894 93.3972 217.458 116.782 194.531 145.868C171.605 174.954 111.821 145.192 117.722 181.235C121.881 206.842 163.769 179.882 134.941 157.657C106.113 135.432 75.1572 186.84 107.564 240.857C139.971 294.873 192.597 238.151 163.092 223.27C134.07 208.678 100.599 275.257 154.482 307.435C208.365 339.614 236.419 284.727 236.419 284.727" stroke="black" stroke-miterlimit="10" stroke-linecap="round" stroke-linejoin="round"/>
</g>
<defs>
<clipPath id="clip0">
<rect width="547.728" height="419.96" fill="white" transform="translate(93.248 70.0125)"/>
</clipPath>
</defs>
</svg>
