<svg width="854" height="756" viewBox="0 0 854 756" fill="none" xmlns="http://www.w3.org/2000/svg">
<path d="M149.936 432.295C164.852 301.87 23.3288 328.683 83.4364 172.154C153.577 -10.2991 396.138 88.2524 511.825 191.332C609.844 278.697 640.918 88.43 778.713 154.131C885.877 205.271 864.834 335.608 799.666 390.033C684.601 486.099 531.801 404.061 415.227 598.945C330.703 740.291 98.7074 711.702 80.684 591.931C66.2121 495.51 142.656 496.043 149.936 432.295Z" fill="#0E38CC"/>
<path d="M-115 752.01C-115 752.01 -114.822 749.791 -114.379 745.44C-114.201 743.309 -113.935 740.557 -113.579 737.361C-113.224 734.164 -112.78 730.435 -112.248 726.263C-111.093 717.917 -109.407 707.529 -106.565 695.365C-105.944 692.347 -105.056 689.15 -104.168 685.954C-103.724 684.356 -103.192 682.669 -102.748 680.982C-102.481 680.183 -102.215 679.295 -102.037 678.407C-101.771 677.519 -101.505 676.72 -101.238 675.833C-99.1075 668.907 -96.3551 661.627 -92.9813 654.08C-89.6074 646.533 -85.5233 638.72 -80.3738 630.818C-75.313 623.005 -69.0093 615.192 -61.4626 607.912C-57.6448 604.272 -53.6495 600.809 -49.2102 597.524C-48.6775 597.08 -48.1448 596.725 -47.5233 596.281C-47.1681 596.015 -46.7242 595.748 -46.3691 595.482C-45.0373 594.594 -43.7055 593.706 -42.3737 592.818C-41.2195 592.108 -39.9765 591.398 -38.8223 590.599C-37.6681 589.889 -36.3363 589.178 -35.1821 588.557C-25.327 583.141 -14.3176 579.057 -2.95314 576.216C2.72911 574.795 8.58894 573.73 14.4488 572.931C20.3086 572.131 26.346 571.688 32.2946 571.421C44.3693 570.888 56.5329 571.421 68.8741 572.575C93.5563 574.973 118.594 580.122 144.164 586.603C195.304 599.655 248.575 618.3 305.131 635.08C319.248 639.253 333.631 643.337 348.192 647.066C362.753 650.795 377.491 654.258 392.496 657.099C407.501 659.94 422.683 662.16 437.954 663.491C453.225 664.734 468.674 665.001 484.033 663.669C499.305 662.337 514.487 659.407 528.781 654.258C543.164 649.108 556.66 641.739 568.734 632.15L569.889 631.262C570.244 630.996 570.688 630.641 571.043 630.286L573.351 628.332L575.66 626.379C576.37 625.758 577.169 625.047 577.879 624.426C580.809 621.851 583.65 619.01 586.403 616.258C591.907 610.664 596.968 604.627 601.496 598.323C605.935 592.019 609.842 585.36 612.772 578.435C615.702 571.51 617.744 564.23 618.632 556.949C618.721 556.061 618.809 555.085 618.898 554.197C618.987 553.309 619.076 552.332 619.076 551.445C619.076 549.58 619.164 547.804 619.076 545.94C618.987 542.3 618.454 538.659 617.744 535.019C617.3 533.244 616.945 531.379 616.412 529.692C616.146 528.804 615.879 527.916 615.613 527.029L614.636 524.365C614.459 523.921 614.37 523.477 614.192 523.033L613.66 521.79L612.506 519.216L611.263 516.73L610.641 515.487C610.464 515.043 610.197 514.688 609.931 514.244L608.51 511.758C608.066 510.959 607.445 510.159 607.001 509.36C606.024 507.762 604.87 506.164 603.716 504.655C603.183 503.856 602.562 503.145 601.94 502.346L600.164 500.127L598.211 497.907C597.59 497.197 596.968 496.398 596.258 495.776C590.842 490.094 584.805 484.944 578.234 480.328C565.094 471.094 550.267 463.902 534.641 458.487C526.828 455.823 518.837 453.515 510.758 451.65C508.716 451.206 506.674 450.673 504.632 450.318L498.505 449.075L492.29 448.01C490.248 447.655 488.118 447.388 486.076 447.122C477.818 446.057 469.473 445.169 461.038 444.725C458.907 444.547 456.865 444.547 454.734 444.458L451.627 444.37H448.431C446.3 444.37 444.258 444.281 442.127 444.281L435.823 444.37C434.758 444.37 433.692 444.37 432.627 444.458L429.431 444.547C427.3 444.636 425.258 444.725 423.127 444.814L416.823 445.169L410.519 445.701L407.412 445.968L404.304 446.323L398.001 447.033L391.697 447.832C390.631 448.01 389.566 448.099 388.589 448.276L385.482 448.72L379.267 449.697L373.052 450.762C368.79 451.472 364.529 452.272 360.267 452.982L353.874 454.136L350.678 454.669L347.482 455.113C343.22 455.734 338.87 456.444 334.608 457.066C317.384 459.374 300.159 461.239 282.846 462.127C265.533 462.926 248.131 462.837 230.907 461.328L227.711 461.061L224.514 460.706C222.384 460.44 220.253 460.173 218.033 459.907C215.37 459.641 212.706 459.019 210.042 458.664C208.267 458.309 206.491 458.043 204.715 457.687C196.37 455.912 188.024 454.047 179.944 451.295L176.837 450.318C175.771 449.963 174.795 449.519 173.729 449.164C171.687 448.365 169.645 447.655 167.603 446.856C165.561 445.968 163.608 445.08 161.566 444.192L160.056 443.482C159.524 443.215 159.08 442.949 158.547 442.772L155.617 441.262C147.893 437.267 140.435 432.472 133.598 426.968C126.762 421.463 120.636 415.159 115.22 408.323C109.804 401.486 105.187 394.117 101.369 386.659C100.393 384.795 99.5049 382.93 98.5283 381.066C97.6404 379.201 96.7526 377.426 95.8647 375.384C95.4208 374.407 94.9769 373.43 94.533 372.454L93.3788 369.435C92.5797 367.482 91.9582 365.44 91.2479 363.398C88.5844 355.318 86.8087 346.972 85.7432 338.627L85.5657 337.028C85.4769 336.496 85.4769 335.963 85.3881 335.43L85.1217 332.323C85.0329 331.257 85.0329 330.192 84.9442 329.215C84.9442 328.15 84.8554 327.173 84.8554 326.108C84.7666 321.935 84.8554 317.762 85.1217 313.678C85.7432 305.421 86.9862 297.253 89.0283 289.262C93.1124 273.369 99.8601 258.365 109.094 245.313C118.239 232.173 129.781 220.897 142.832 212.374C155.883 203.762 170.267 197.813 185.005 194.528C192.374 192.841 199.743 191.865 207.113 191.332L209.865 191.154L212.617 191.066C214.482 190.977 216.257 190.888 218.122 190.977C219.986 190.977 221.762 190.977 223.538 191.066C225.313 191.154 227.178 191.243 228.954 191.332C243.337 192.309 257.276 194.883 270.594 198.701C276.809 200.388 282.846 202.43 288.706 204.561C290.215 205.094 292.613 206.07 294.033 206.603C295.809 207.313 297.585 207.935 299.36 208.734C300.87 209.355 302.379 210.066 303.977 210.687C305.486 211.309 306.996 212.019 308.505 212.729C314.543 215.482 320.314 218.323 325.996 221.341C327.416 222.14 328.837 222.851 330.258 223.65L332.388 224.804L334.43 225.958C337.183 227.556 339.935 229.066 342.599 230.664C353.253 236.879 363.818 242.472 374.384 247.444C395.515 257.388 416.468 264.935 436.622 269.907C456.776 274.79 476.22 277.098 494.155 277.187C512.09 277.276 528.604 275.056 543.076 271.683C557.548 268.309 570.066 263.603 580.632 258.72C591.108 253.837 599.632 248.776 606.202 244.337C612.772 239.897 617.566 235.991 620.674 233.327C621.828 232.351 622.716 231.552 623.426 230.93C624.492 229.954 626.09 230.042 627.066 231.019C628.132 232.084 628.043 233.771 626.978 234.837C626.267 235.547 625.291 236.346 624.136 237.411C620.94 240.253 616.057 244.248 609.309 248.954C602.562 253.659 593.861 258.986 583.118 264.136C572.375 269.285 559.501 274.257 544.585 277.986C529.669 281.715 512.711 284.112 494.155 284.29C475.599 284.468 455.622 282.337 434.758 277.542C413.893 272.748 392.318 265.29 370.566 255.346C359.734 250.374 348.814 244.781 337.893 238.654C335.23 237.145 332.477 235.636 329.725 234.126L327.683 232.972L325.641 231.907C324.22 231.197 322.888 230.486 321.468 229.776C315.874 226.935 310.192 224.182 304.332 221.608C302.912 220.897 301.402 220.365 299.893 219.743C298.384 219.122 296.963 218.5 295.454 217.879C293.767 217.168 291.991 216.547 290.304 215.925C288.884 215.393 286.575 214.594 285.155 214.061C279.472 212.108 273.613 210.154 267.664 208.645C254.968 205.182 241.65 202.874 228.155 202.164C226.468 202.075 224.781 202.075 223.094 201.986C221.407 201.986 219.72 201.986 218.033 201.986C216.346 201.986 214.659 202.075 212.884 202.164L210.309 202.253L207.734 202.43C200.898 202.963 194.061 204.028 187.402 205.626C173.996 208.911 160.944 214.416 149.225 222.407C137.505 230.309 127.295 240.608 119.126 252.594C110.958 264.58 105.01 278.253 101.458 292.636C99.6825 299.827 98.6171 307.285 98.2619 314.743C97.9956 318.472 98.0844 322.201 98.1732 325.93C98.1732 326.907 98.2619 327.795 98.3507 328.771C98.4395 329.748 98.4395 330.636 98.5283 331.613L98.7946 334.454C98.8834 334.898 98.8834 335.43 98.9722 335.874L99.1498 337.295C100.126 344.753 101.813 352.122 104.299 359.314C104.921 361.089 105.542 362.865 106.253 364.641L107.318 367.304C107.673 368.192 108.117 368.991 108.472 369.879C109.271 371.566 110.159 373.342 111.047 375.117C111.935 376.893 112.823 378.58 113.711 380.356C117.351 387.192 121.524 393.673 126.318 399.622C131.112 405.571 136.617 410.986 142.655 415.781C148.692 420.575 155.351 424.659 162.276 428.211L164.94 429.543C165.384 429.72 165.827 429.986 166.271 430.164L167.603 430.786C169.201 431.496 170.799 432.117 172.398 432.828C174.262 433.538 176.127 434.248 177.991 434.958C179.145 435.314 180.299 435.846 181.454 436.201L184.295 437.089C191.753 439.486 199.477 441.173 207.201 442.683C208.888 442.949 210.575 443.215 212.262 443.482C214.748 443.748 217.234 444.281 219.72 444.547C221.762 444.725 223.804 444.991 225.846 445.169L228.865 445.524L231.972 445.701C248.309 446.944 265 446.856 281.603 445.879C298.295 444.814 314.987 442.86 331.767 440.286C335.94 439.575 340.113 438.954 344.286 438.243L347.393 437.711L350.501 437.089L356.716 435.935C360.888 435.136 365.15 434.337 369.323 433.538L375.804 432.295L382.286 431.229L385.571 430.697C386.636 430.519 387.79 430.342 388.856 430.253L395.426 429.276L401.996 428.477L405.281 428.122L408.566 427.767L415.136 427.145L421.706 426.701C423.926 426.524 426.146 426.435 428.365 426.346L431.65 426.169C432.716 426.08 433.87 426.08 434.935 426.08L441.594 425.902C443.814 425.902 446.033 425.902 448.253 425.902H451.538L454.912 425.991C457.132 426.08 459.351 426.08 461.571 426.169C470.449 426.524 479.328 427.234 488.206 428.388C490.426 428.655 492.646 428.921 494.865 429.276L501.524 430.342L508.094 431.585C510.314 431.94 512.445 432.472 514.664 432.916C523.454 434.87 532.155 437.178 540.678 440.019C557.814 445.701 574.417 453.426 589.688 463.814C597.234 469.052 604.515 474.912 611.085 481.659C611.884 482.458 612.683 483.346 613.482 484.234L615.879 486.809L618.099 489.561C618.809 490.449 619.608 491.337 620.319 492.314C621.739 494.178 623.16 496.131 624.492 498.085C625.113 499.061 625.823 500.038 626.445 501.103L628.309 504.211C628.576 504.744 628.931 505.276 629.197 505.72L629.996 507.318L631.683 510.515L633.193 513.8L633.903 515.487C634.169 516.019 634.347 516.641 634.524 517.173L635.767 520.547C636.122 521.702 636.478 522.856 636.833 524.01C637.632 526.318 638.076 528.716 638.697 531.024C639.674 535.818 640.473 540.613 640.65 545.496C640.828 547.893 640.739 550.379 640.739 552.776C640.739 554.019 640.65 555.174 640.562 556.417C640.473 557.66 640.384 558.814 640.295 560.057C639.23 569.646 636.744 578.968 633.193 587.669C629.641 596.37 625.024 604.449 619.875 611.996C614.725 619.543 608.954 626.468 602.739 632.949C599.632 636.146 596.524 639.253 593.239 642.272C592.44 642.982 591.641 643.781 590.842 644.491L588.356 646.622L585.87 648.753C585.426 649.108 585.071 649.463 584.627 649.819L583.295 650.884C569.356 662.248 553.552 671.216 536.949 677.342C520.347 683.468 503.211 687.02 486.164 688.706C469.206 690.393 452.337 690.305 435.912 689.15C419.487 687.996 403.417 685.865 387.702 683.024C371.987 680.272 356.627 676.898 341.622 673.258C326.617 669.618 311.879 665.622 297.496 661.538C268.641 653.37 241.028 644.847 214.304 636.856C187.58 628.865 161.832 621.407 137.061 615.459C112.29 609.51 88.4956 604.982 66.0329 603.117C43.6591 601.253 22.5282 602.052 4.50482 606.758C-4.55126 609.155 -12.8083 612.351 -20.0887 616.524C-20.9765 617.057 -21.9532 617.501 -22.841 618.122C-23.7289 618.655 -24.6167 619.188 -25.5046 619.809C-26.3924 620.342 -27.1915 620.963 -27.9905 621.585C-28.4345 621.851 -28.7896 622.118 -29.2335 622.473L-30.4765 623.361C-33.6728 625.758 -36.6915 628.421 -39.4438 631.174C-50.542 642.094 -57.9999 655.146 -63.5046 667.664C-66.257 673.968 -68.4766 680.094 -70.2523 686.132C-70.5186 686.842 -70.6962 687.641 -70.9626 688.351C-71.1401 689.062 -71.4065 689.861 -71.5841 690.571C-71.9392 692.08 -72.3831 693.501 -72.7383 694.921C-73.4486 697.762 -74.1588 700.515 -74.6915 703.267C-77.0887 714.01 -78.5093 723.51 -79.4859 731.146C-79.9299 734.963 -80.3738 738.426 -80.6401 741.356C-80.9065 744.286 -81.1729 746.772 -81.2616 748.814C-81.528 752.809 -81.7056 754.94 -81.7056 754.94L-115 752.01Z" fill="white" stroke="black" stroke-miterlimit="10" stroke-linecap="round" stroke-linejoin="round"/>
<path d="M692.057 234.925C685.043 254.991 675.898 275.234 660.094 287.131C645.267 298.229 632.482 292.458 618.365 287.575C603.183 282.337 589.066 277.631 584.982 257.743C581.253 239.542 586.58 219.299 593.061 200.654C598.211 185.827 605.403 171.444 618.543 167.271C632.216 162.921 645.977 168.869 658.052 173.042C669.505 177.038 682.823 180.678 691.258 191.066C700.491 202.43 697.65 218.855 692.057 234.925Z" fill="white" stroke="black" stroke-miterlimit="10" stroke-linecap="round" stroke-linejoin="round"/>
<path d="M550.356 377.426C542.809 374.762 538.814 366.594 541.389 359.047C559.767 306.042 585.071 259.785 586.136 257.832C589.954 250.818 597.856 250.996 604.87 254.813C611.884 258.631 615.347 264.757 611.529 271.771C611.263 272.215 586.314 317.851 568.734 368.458C566.16 376.094 557.903 380.089 550.356 377.426Z" fill="white" stroke="black" stroke-miterlimit="10" stroke-linecap="round" stroke-linejoin="round"/>
<path d="M616.678 400.421C609.131 397.757 605.136 389.589 607.711 382.042C625.29 331.257 633.991 280.117 634.08 279.584C635.412 271.682 641.893 269.108 649.795 270.439C657.697 271.771 663.912 276.477 662.669 284.379C662.314 286.598 653.524 338.449 635.145 391.542C632.482 399.089 624.225 403.085 616.678 400.421Z" fill="white" stroke="black" stroke-miterlimit="10" stroke-linecap="round" stroke-linejoin="round"/>
<path d="M592.44 312.79L593.949 313.412C597.59 304.444 593.239 294.323 584.272 290.683C575.304 287.042 565.183 291.393 561.543 300.36L563.052 300.982L558.968 311.192L557.459 310.57C553.818 319.538 558.169 329.659 567.136 333.299C576.104 336.94 586.225 332.589 589.865 323.622L588.356 323L592.44 312.79Z" fill="white" stroke="black" stroke-miterlimit="10" stroke-linecap="round" stroke-linejoin="round"/>
<path d="M624.048 323.799L622.45 323.355C625.202 314.122 634.88 308.795 644.114 311.547C653.347 314.299 658.674 323.977 655.922 333.211L654.324 332.767L651.216 343.332L652.815 343.776C650.062 353.01 640.385 358.337 631.151 355.584C621.917 352.832 616.59 343.155 619.343 333.921L620.941 334.365L624.048 323.799Z" fill="white" stroke="black" stroke-miterlimit="10" stroke-linecap="round" stroke-linejoin="round"/>
<path d="M542.187 348.659L537.215 370.145L530.468 367.748C525.141 365.884 519.281 368.725 517.416 374.052C515.552 379.379 518.393 385.239 523.72 387.103L557.902 399L573.529 359.58L542.187 348.659Z" fill="white" stroke="black" stroke-miterlimit="10" stroke-linecap="round" stroke-linejoin="round"/>
<path d="M640.65 382.842L631.239 402.818L637.987 405.215C643.314 407.08 646.155 412.851 644.29 418.267C642.426 423.594 636.655 426.435 631.239 424.571L597.057 412.673L609.309 372.01L640.65 382.842Z" fill="white" stroke="black" stroke-miterlimit="10" stroke-linecap="round" stroke-linejoin="round"/>
<path d="M516.226 374.923L511.803 387.673L558.946 404.03L563.369 391.279L516.226 374.923Z" fill="black"/>
<path d="M597.659 403.163L593.236 415.913L640.379 432.264L644.802 419.514L597.659 403.163Z" fill="black"/>
<path d="M563.318 307.729C565.716 300.893 573.173 297.253 580.01 299.65C586.846 302.047 590.487 309.505 588.089 316.341C585.692 323.178 578.234 326.818 571.398 324.421C564.561 322.024 561.01 314.566 563.318 307.729Z" fill="white" stroke="black" stroke-miterlimit="10" stroke-linecap="round" stroke-linejoin="round"/>
<path d="M566.159 308.706C568.024 303.379 573.795 300.626 579.033 302.491C584.36 304.355 587.113 310.127 585.248 315.365C583.384 320.692 577.613 323.444 572.374 321.58C567.136 319.715 564.295 313.944 566.159 308.706Z" fill="black"/>
<path d="M625.291 329.215C627.688 322.379 635.146 318.739 641.983 321.136C648.819 323.533 652.459 330.991 650.062 337.827C647.665 344.664 640.207 348.304 633.37 345.907C626.534 343.51 622.983 336.052 625.291 329.215Z" fill="white" stroke="black" stroke-miterlimit="10" stroke-linecap="round" stroke-linejoin="round"/>
<path d="M628.132 330.192C629.997 324.865 635.768 322.112 641.006 323.977C646.333 325.841 649.085 331.612 647.221 336.851C645.356 342.178 639.585 344.93 634.347 343.066C629.109 341.201 626.268 335.43 628.132 330.192Z" fill="black"/>
<path d="M614.458 205.449C616.856 198.612 624.225 195.061 631.061 197.369L664.356 208.911C671.192 211.309 674.744 218.678 672.346 225.514L667.641 239.187C665.244 246.024 657.874 249.575 651.038 247.178L617.743 235.636C610.907 233.239 607.356 225.869 609.664 219.033L614.458 205.449Z" fill="white" stroke="black" stroke-miterlimit="10" stroke-linecap="round" stroke-linejoin="round"/>
<path d="M613.037 243.182C613.215 242.65 613.836 242.383 614.369 242.561L649.439 254.725C649.972 254.902 650.238 255.524 650.061 256.056C649.883 256.589 649.262 256.855 648.729 256.678L613.659 244.514C613.126 244.248 612.86 243.715 613.037 243.182Z" fill="white" stroke="black" stroke-miterlimit="10" stroke-linecap="round" stroke-linejoin="round"/>
<path d="M611.174 248.421C611.351 247.888 611.973 247.622 612.505 247.799L647.576 259.963C648.108 260.14 648.375 260.762 648.197 261.295C648.019 261.827 647.398 262.094 646.865 261.916L611.795 249.753C611.351 249.575 610.996 248.953 611.174 248.421Z" fill="white" stroke="black" stroke-miterlimit="10" stroke-linecap="round" stroke-linejoin="round"/>
<path d="M619.609 207.136C621.118 202.785 625.824 200.477 630.174 201.986L662.048 213.084C666.399 214.594 668.707 219.299 667.198 223.65C665.688 228 660.983 230.309 656.632 228.799L624.758 217.701C620.408 216.192 618.099 211.486 619.609 207.136Z" fill="black"/>
<path d="M616.412 222.673C617.034 220.897 618.987 219.921 620.851 220.542C622.627 221.164 623.604 223.117 622.982 224.982C622.361 226.757 620.408 227.734 618.543 227.112C616.767 226.491 615.791 224.449 616.412 222.673Z" fill="white" stroke="black" stroke-miterlimit="10" stroke-linecap="round" stroke-linejoin="round"/>
<path d="M625.647 225.869C626.268 224.094 628.221 223.117 630.086 223.739C631.862 224.36 632.838 226.313 632.217 228.178C631.595 229.954 629.642 230.93 627.777 230.309C626.002 229.687 625.025 227.734 625.647 225.869Z" fill="white" stroke="black" stroke-miterlimit="10" stroke-linecap="round" stroke-linejoin="round"/>
<path d="M634.969 229.066C635.59 227.29 637.544 226.313 639.408 226.935C641.184 227.556 642.16 229.51 641.539 231.374C640.917 233.15 638.964 234.126 637.1 233.505C635.324 232.883 634.347 230.93 634.969 229.066Z" fill="white" stroke="black" stroke-miterlimit="10" stroke-linecap="round" stroke-linejoin="round"/>
<path d="M644.291 232.351C644.912 230.575 646.865 229.598 648.73 230.22C650.506 230.841 651.482 232.795 650.861 234.659C650.239 236.435 648.286 237.411 646.421 236.79C644.557 236.08 643.669 234.126 644.291 232.351Z" fill="white" stroke="black" stroke-miterlimit="10" stroke-linecap="round" stroke-linejoin="round"/>
<path d="M653.526 235.547C654.147 233.771 656.1 232.795 657.965 233.416C659.74 234.038 660.717 235.991 660.096 237.855C659.474 239.631 657.521 240.608 655.656 239.986C653.881 239.365 652.904 237.323 653.526 235.547Z" fill="white" stroke="black" stroke-miterlimit="10" stroke-linecap="round" stroke-linejoin="round"/>
<path d="M539.346 347.683C539.878 346.262 541.477 345.463 542.897 345.996L575.481 357.271C576.902 357.804 577.701 359.402 577.168 360.823C576.635 362.243 575.037 363.042 573.617 362.51L541.033 351.234C539.612 350.701 538.813 349.192 539.346 347.683Z" fill="white" stroke="black" stroke-miterlimit="10" stroke-linecap="round" stroke-linejoin="round"/>
<path d="M605.936 370.856C606.469 369.435 608.067 368.636 609.487 369.169L642.072 380.444C643.492 380.977 644.291 382.575 643.759 383.996C643.226 385.416 641.628 386.215 640.207 385.683L607.623 374.407C606.202 373.874 605.492 372.276 605.936 370.856Z" fill="white" stroke="black" stroke-miterlimit="10" stroke-linecap="round" stroke-linejoin="round"/>
<path d="M572.464 367.926C572.02 369.169 570.599 369.879 569.356 369.435L565.361 368.103C564.118 367.659 563.408 366.239 563.852 364.996C564.296 363.753 565.716 363.042 566.959 363.486L570.954 364.818C572.197 365.262 572.908 366.594 572.464 367.926Z" fill="white" stroke="black" stroke-miterlimit="10" stroke-linecap="round" stroke-linejoin="round"/>
<path d="M569.179 377.159C568.735 378.402 567.314 379.113 566.071 378.669L562.076 377.337C560.833 376.893 560.123 375.472 560.566 374.229C561.01 372.986 562.431 372.276 563.674 372.72L567.669 374.052C569.001 374.496 569.623 375.916 569.179 377.159Z" fill="white" stroke="black" stroke-miterlimit="10" stroke-linecap="round" stroke-linejoin="round"/>
<path d="M613.571 382.22C613.127 383.463 611.707 384.173 610.464 383.729L606.468 382.398C605.225 381.954 604.515 380.533 604.959 379.29C605.403 378.047 606.824 377.337 608.067 377.781L612.062 379.113C613.305 379.468 614.015 380.888 613.571 382.22Z" fill="white" stroke="black" stroke-miterlimit="10" stroke-linecap="round" stroke-linejoin="round"/>
<path d="M610.376 391.454C609.932 392.697 608.511 393.407 607.268 392.963L603.273 391.631C602.03 391.187 601.32 389.767 601.764 388.524C602.208 387.281 603.628 386.571 604.871 387.014L608.867 388.346C610.11 388.79 610.82 390.211 610.376 391.454Z" fill="white" stroke="black" stroke-miterlimit="10" stroke-linecap="round" stroke-linejoin="round"/>
<path d="M704.398 265.112C691.79 260.762 689.571 240.075 688.772 232.883C687.44 220.187 687.795 207.757 687.795 207.225C687.972 202.075 692.234 198.08 697.384 198.257C702.533 198.435 706.529 202.696 706.351 207.846C706.351 207.935 706.085 217.08 706.884 227.112C707.949 240.43 710.08 245.757 711.057 247.533C719.935 247 735.473 239.454 752.431 227.468C756.603 224.538 762.374 225.514 765.304 229.687C768.234 233.86 767.258 239.631 763.085 242.561C747.459 253.57 725.351 266.622 708.748 266C707.239 265.823 705.818 265.556 704.398 265.112Z" fill="white" stroke="black" stroke-miterlimit="10" stroke-linecap="round" stroke-linejoin="round"/>
<path d="M706.351 214.771L701.201 214.594L701.29 227.379L706.972 228.089L706.351 214.771Z" fill="black"/>
<path d="M739.112 262.271C738.224 262.626 737.248 262.271 736.893 261.383L727.126 239.187C726.771 238.299 727.126 237.323 728.014 236.968C728.902 236.612 729.879 236.968 730.234 237.855L740 260.052C740.355 260.94 740 261.916 739.112 262.271Z" fill="white" stroke="black" stroke-miterlimit="10" stroke-linecap="round" stroke-linejoin="round"/>
<path d="M712.567 235.725C712.834 236.612 712.39 237.589 711.502 237.855L688.506 245.757C687.619 246.024 686.642 245.58 686.376 244.692C686.109 243.804 686.553 242.827 687.441 242.561L710.436 234.659C711.324 234.393 712.301 234.837 712.567 235.725Z" fill="white" stroke="black" stroke-miterlimit="10" stroke-linecap="round" stroke-linejoin="round"/>
<path d="M789.01 228.799L766.369 244.514C766.281 244.603 766.192 244.692 766.103 244.692C766.014 245.757 765.393 246.912 764.327 247.622C762.552 248.865 760.332 248.598 759.267 247L758.556 246.024C756.159 245.491 753.851 244.07 752.341 241.94C750.832 239.72 750.299 237.145 750.654 234.748L749.855 233.683C748.879 233.505 747.902 232.972 747.281 232.084C746.57 231.108 746.393 229.865 746.748 228.711C746.482 227.379 747.103 225.869 748.435 224.893C749.411 224.183 750.654 224.005 751.631 224.271L766.458 213.972C768.234 212.729 770.631 213.173 771.874 214.949C772.052 215.215 772.229 215.482 772.318 215.837L777.379 212.285C781.907 209.089 788.211 210.243 791.407 214.771C794.692 219.388 793.538 225.603 789.01 228.799Z" fill="white" stroke="black" stroke-miterlimit="10" stroke-linecap="round" stroke-linejoin="round"/>
<path d="M762.907 245.935C764.061 247.711 763.529 250.108 761.753 251.262C759.977 252.416 757.58 251.883 756.426 250.108L743.641 229.954C742.486 228.178 743.019 225.781 744.795 224.626C746.571 223.472 748.968 224.005 750.122 225.781L762.907 245.935Z" fill="black"/>
<path d="M562.52 210.953C574.239 217.257 590.931 204.916 596.791 200.566C607.09 192.93 615.968 184.229 616.324 183.874C619.964 180.323 620.053 174.463 616.412 170.734C612.861 167.094 607.001 167.005 603.272 170.645C603.183 170.734 596.702 177.126 588.8 183.252C578.235 191.509 572.908 193.552 570.954 193.995C565.361 187.07 560.3 170.556 557.637 150.047C557.015 144.986 552.309 141.435 547.249 142.056C542.188 142.678 538.637 147.383 539.258 152.444C541.744 171.444 547.16 196.481 558.88 208.29C560.123 209.444 561.277 210.332 562.52 210.953Z" fill="white" stroke="black" stroke-miterlimit="10" stroke-linecap="round" stroke-linejoin="round"/>
<path d="M541.034 183.519C541.3 184.407 542.277 184.851 543.165 184.584L566.071 176.682C566.959 176.416 567.403 175.439 567.137 174.552C566.87 173.664 565.894 173.22 565.006 173.486L542.099 181.388C541.211 181.654 540.767 182.631 541.034 183.519Z" fill="white" stroke="black" stroke-miterlimit="10" stroke-linecap="round" stroke-linejoin="round"/>
<path d="M578.59 185.117C577.702 185.472 577.347 186.538 577.702 187.337L587.469 209.533C587.824 210.421 588.889 210.776 589.688 210.421C590.576 210.066 590.931 209 590.576 208.201L580.81 186.005C580.455 185.117 579.478 184.673 578.59 185.117Z" fill="white" stroke="black" stroke-miterlimit="10" stroke-linecap="round" stroke-linejoin="round"/>
<path d="M531.889 124.21L535.707 151.467C535.707 151.556 535.707 151.734 535.795 151.823C534.996 152.622 534.641 153.865 534.819 155.108C535.085 157.238 536.861 158.659 538.637 158.481L539.88 158.304C541.922 159.724 544.408 160.435 547.071 160.08C549.735 159.724 551.954 158.304 553.552 156.439L554.884 156.262C555.683 156.883 556.749 157.238 557.814 157.061C559.057 156.883 560.034 156.173 560.655 155.196C561.809 154.486 562.52 152.977 562.253 151.379C562.076 150.136 561.454 149.159 560.566 148.538L558.08 130.603C557.814 128.472 555.861 126.963 553.73 127.318C553.375 127.407 553.108 127.495 552.753 127.584L551.866 121.458C551.066 115.953 546.006 112.136 540.501 112.846C534.908 113.645 531.09 118.706 531.889 124.21Z" fill="white" stroke="black" stroke-miterlimit="10" stroke-linecap="round" stroke-linejoin="round"/>
<path d="M536.949 155.019C534.907 155.374 533.486 157.416 533.842 159.458C534.197 161.5 536.239 162.921 538.281 162.566L561.809 158.304C563.851 157.949 565.272 155.907 564.916 153.865C564.561 151.823 562.519 150.402 560.477 150.757L536.949 155.019Z" fill="black"/>
<path d="M597.236 167.094C599.544 160.346 628.488 158.304 659.474 169.047C690.46 179.79 711.857 199.323 709.549 206.07C707.241 212.818 681.226 206.514 650.24 195.682C619.254 184.939 594.927 173.753 597.236 167.094Z" fill="white" stroke="black" stroke-miterlimit="10" stroke-linecap="round" stroke-linejoin="round"/>
<path d="M606.291 162.566C608.333 156.617 632.128 159.547 659.473 169.047C686.819 178.547 707.24 190.977 705.198 196.925C703.156 202.874 680.249 197.281 652.903 187.781C625.646 178.281 604.249 168.514 606.291 162.566Z" fill="white" stroke="black" stroke-miterlimit="10" stroke-linecap="round" stroke-linejoin="round"/>
<path d="M611.616 110.005C614.014 103.168 622.004 97.4861 629.373 97.6637C664.976 99.2618 698.448 110.893 727.392 131.668C733.163 136.108 736.004 145.43 733.607 152.355C732.187 156.439 730.766 160.612 729.346 164.696C726.948 171.533 718.958 177.215 711.588 177.038C675.986 175.439 642.514 163.809 613.57 143.033C607.799 138.594 604.958 129.271 607.355 122.346C608.775 118.262 610.196 114.178 611.616 110.005Z" fill="white" stroke="black" stroke-miterlimit="10" stroke-linecap="round" stroke-linejoin="round"/>
<path d="M618.366 127.851C628.221 99.5281 658.319 84.2571 685.576 93.7571C712.922 103.257 727.128 133.888 717.273 162.122C707.418 190.444 681.759 192.841 654.502 183.43C627.156 173.93 608.511 156.173 618.366 127.851Z" fill="white" stroke="black" stroke-miterlimit="10" stroke-linecap="round" stroke-linejoin="round"/>
<path d="M627.51 134.154C635.057 112.402 658.763 100.86 680.515 108.407C702.268 115.953 713.81 139.659 706.263 161.411C698.716 183.164 678.384 184.851 656.632 177.304C634.88 169.757 619.964 155.818 627.51 134.154Z" fill="white" stroke="black" stroke-miterlimit="10" stroke-linecap="round" stroke-linejoin="round"/>
<path d="M674.389 113.023C659.829 107.874 637.632 115.243 634.791 132.201C634.525 133.799 634.081 140.014 634.88 138.594C645.179 119.061 660.006 114.444 678.829 117.285C680.338 117.552 683.801 116.309 674.389 113.023Z" fill="black"/>
<path d="M702.89 126.874C706.441 135.841 706.974 146.052 703.511 155.907C695.964 177.659 675.633 179.346 653.88 171.799C641.983 167.626 632.039 161.589 626.801 153.421C630.619 164.519 642.072 172.332 656.544 177.393C678.296 184.939 698.628 183.253 706.175 161.5C710.348 149.514 708.749 136.995 702.89 126.874Z" fill="black"/>
<path d="M622.45 110.005C623.071 108.762 622.539 107.252 621.384 106.631C620.141 106.009 618.632 106.542 618.011 107.874C614.637 115.243 612.062 122.612 610.197 130.514C609.842 131.935 610.73 133.355 612.151 133.622C613.483 133.888 614.814 133 615.169 131.668C616.768 124.033 619.165 117.019 622.45 110.005Z" fill="white" stroke="black" stroke-miterlimit="10" stroke-linecap="round" stroke-linejoin="round"/>
<path d="M717.804 167.182C717.182 168.425 717.715 169.935 718.869 170.556C720.112 171.178 721.621 170.645 722.243 169.313C725.617 161.944 728.191 154.575 730.056 146.673C730.411 145.252 729.523 143.832 728.103 143.566C726.771 143.299 725.439 144.187 725.084 145.519C723.397 153.154 721 160.168 717.804 167.182Z" fill="white" stroke="black" stroke-miterlimit="10" stroke-linecap="round" stroke-linejoin="round"/>
<path d="M723.843 515.22C739.436 515.22 752.077 502.58 752.077 486.987C752.077 471.394 739.436 458.753 723.843 458.753C708.25 458.753 695.609 471.394 695.609 486.987C695.609 502.58 708.25 515.22 723.843 515.22Z" fill="#0E38CC"/>
<path d="M100.482 80.8833C113.329 80.8833 123.744 70.4687 123.744 57.6216C123.744 44.7745 113.329 34.3599 100.482 34.3599C87.6353 34.3599 77.2207 44.7745 77.2207 57.6216C77.2207 70.4687 87.6353 80.8833 100.482 80.8833Z" fill="#0E38CC"/>
<path d="M153.931 25.3926C160.943 25.3926 166.627 19.7082 166.627 12.6963C166.627 5.68432 160.943 0 153.931 0C146.919 0 141.234 5.68432 141.234 12.6963C141.234 19.7082 146.919 25.3926 153.931 25.3926Z" fill="#0E38CC"/>
<path d="M100.482 460.173C105.288 460.173 109.183 456.278 109.183 451.473C109.183 446.667 105.288 442.772 100.482 442.772C95.6768 442.772 91.7812 446.667 91.7812 451.473C91.7812 456.278 95.6768 460.173 100.482 460.173Z" fill="#0E38CC"/>
<path d="M751.011 362.687H735.029" stroke="black" stroke-miterlimit="10" stroke-linecap="round" stroke-linejoin="round"/>
<path d="M743.02 370.678V354.697" stroke="black" stroke-miterlimit="10" stroke-linecap="round" stroke-linejoin="round"/>
<path d="M696.497 334.187H680.516" stroke="black" stroke-miterlimit="10" stroke-linecap="round" stroke-linejoin="round"/>
<path d="M688.506 342.178V326.197" stroke="black" stroke-miterlimit="10" stroke-linecap="round" stroke-linejoin="round"/>
<path d="M776.848 322.645V328.683" stroke="black" stroke-miterlimit="10" stroke-linecap="round" stroke-linejoin="round"/>
<path d="M779.866 325.664H773.828" stroke="black" stroke-miterlimit="10" stroke-linecap="round" stroke-linejoin="round"/>
<path d="M204.449 555.262H188.557" stroke="black" stroke-miterlimit="10" stroke-linecap="round" stroke-linejoin="round"/>
<path d="M196.459 563.253V547.272" stroke="black" stroke-miterlimit="10" stroke-linecap="round" stroke-linejoin="round"/>
<path d="M149.936 526.762H133.955" stroke="black" stroke-miterlimit="10" stroke-linecap="round" stroke-linejoin="round"/>
<path d="M141.945 534.753V518.772" stroke="black" stroke-miterlimit="10" stroke-linecap="round" stroke-linejoin="round"/>
<path d="M230.285 515.22V521.258" stroke="black" stroke-miterlimit="10" stroke-linecap="round" stroke-linejoin="round"/>
<path d="M233.303 518.239H227.266" stroke="black" stroke-miterlimit="10" stroke-linecap="round" stroke-linejoin="round"/>
<path d="M475.245 245.313H459.264" stroke="black" stroke-miterlimit="10" stroke-linecap="round" stroke-linejoin="round"/>
<path d="M467.254 253.304V237.323" stroke="black" stroke-miterlimit="10" stroke-linecap="round" stroke-linejoin="round"/>
<path d="M327.682 159.458H311.701" stroke="black" stroke-miterlimit="10" stroke-linecap="round" stroke-linejoin="round"/>
<path d="M319.691 167.449V151.467" stroke="black" stroke-miterlimit="10" stroke-linecap="round" stroke-linejoin="round"/>
<path d="M501.082 205.271V211.22" stroke="black" stroke-miterlimit="10" stroke-linecap="round" stroke-linejoin="round"/>
<path d="M504.1 208.201H498.062" stroke="black" stroke-miterlimit="10" stroke-linecap="round" stroke-linejoin="round"/>
<path d="M352.189 182.098V188.136" stroke="black" stroke-miterlimit="10" stroke-linecap="round" stroke-linejoin="round"/>
<path d="M355.119 185.117H349.17" stroke="black" stroke-miterlimit="10" stroke-linecap="round" stroke-linejoin="round"/>
<path d="M200.9 237.145V243.183" stroke="black" stroke-miterlimit="10" stroke-linecap="round" stroke-linejoin="round"/>
<path d="M203.918 240.164H197.881" stroke="black" stroke-miterlimit="10" stroke-linecap="round" stroke-linejoin="round"/>
<path d="M693.568 294.145V300.183" stroke="black" stroke-miterlimit="10" stroke-linecap="round" stroke-linejoin="round"/>
<path d="M696.497 297.164H690.549" stroke="black" stroke-miterlimit="10" stroke-linecap="round" stroke-linejoin="round"/>
<path d="M378.645 394.916H362.664" stroke="black" stroke-miterlimit="10" stroke-linecap="round" stroke-linejoin="round"/>
<path d="M370.654 402.818V386.926" stroke="black" stroke-miterlimit="10" stroke-linecap="round" stroke-linejoin="round"/>
<path d="M405.637 366.594V372.542" stroke="black" stroke-miterlimit="10" stroke-linecap="round" stroke-linejoin="round"/>
<path d="M408.655 369.524H402.617" stroke="black" stroke-miterlimit="10" stroke-linecap="round" stroke-linejoin="round"/>
<path d="M696.496 395.715V401.753" stroke="black" stroke-miterlimit="10" stroke-linecap="round" stroke-linejoin="round"/>
<path d="M699.515 398.734H693.566" stroke="black" stroke-miterlimit="10" stroke-linecap="round" stroke-linejoin="round"/>
<path d="M758.647 277.631H742.666" stroke="black" stroke-miterlimit="10" stroke-linecap="round" stroke-linejoin="round"/>
<path d="M750.656 285.622V269.641" stroke="black" stroke-miterlimit="10" stroke-linecap="round" stroke-linejoin="round"/>
</svg>
